<?xml version="1.0" standalone="no"?><!-- Generator: Gravit.io --><svg xmlns="http://www.w3.org/2000/svg" xmlns:xlink="http://www.w3.org/1999/xlink" style="isolation:isolate" viewBox="0 0 450 450" width="450" height="450"><defs><clipPath id="_clipPath_qqQQ7lWvIBS3XMzBojcghNtBS9bZmRPM"><rect width="450" height="450"/></clipPath></defs><g clip-path="url(#_clipPath_qqQQ7lWvIBS3XMzBojcghNtBS9bZmRPM)"><g id="Group"><path d=" M 39.084 118.789 L 357.77 118.789 C 368.77 118.789 377.688 127.706 377.688 138.707 L 377.688 364.443 C 377.688 375.443 368.77 384.361 357.77 384.361 L 39.084 384.361 C 28.083 384.361 19.166 375.443 19.166 364.443 L 19.166 138.707 C 19.166 127.706 28.083 118.789 39.084 118.789 Z " fill="rgb(187,222,249)"/><path d=" M 248.554 384.361 L 377.894 255.027 L 377.894 135.52 L 129.053 384.361 L 248.554 384.361 Z  M 54.288 384.361 L 97.855 384.361 L 356.787 125.428 C 352.964 121.165 347.495 118.748 341.769 118.789 L 319.86 118.789 L 54.288 384.361 Z " fill="rgb(222,240,255)"/><path d=" M 261.832 118.789 L 16.178 364.443 C 19.684 370.153 15.58 384.361 22.817 384.361 L 288.389 118.789 L 261.832 118.789 Z " fill="rgb(227,242,255)"/><path d=" M 278.098 385.217 L 190.393 298.05 C 185.235 293.039 177.028 293.039 171.87 298.05 L 85.559 384.361 L 278.098 385.217 Z " fill="rgb(151,224,187)"/><path d=" M 377.688 357.803 L 373.306 357.803 L 373.306 344.525 L 288.575 262.516 C 286.011 260.076 281.983 260.076 279.42 262.516 L 184.292 357.803 L 19.166 357.803 L 19.166 364.443 C 19.166 375.443 28.083 384.361 39.084 384.361 L 358.753 384.361 L 368.791 384.752 C 370.37 382.779 371.566 380.527 372.317 378.113 C 375.668 374.498 377.554 369.764 377.608 364.835 L 377.688 357.803 Z " fill="rgb(114,202,175)"/><path d=" M 138.673 211.739 C 138.673 226.412 126.789 238.296 112.116 238.296 C 97.443 238.296 85.559 226.412 85.559 211.739 C 85.559 197.066 97.443 185.182 112.116 185.182 C 126.789 185.182 138.673 197.066 138.673 211.739 Z " fill="rgb(255,235,155)"/><path d=" M 316.48 113.371 L 382.873 179.764 L 289.638 273 L 223.244 206.627 L 316.48 113.371 Z " fill="rgb(249,227,174)"/><path d=" M 339.2 137.199 L 382.329 180.355 L 293.01 269.68 L 249.855 226.545 L 339.2 137.199 Z " fill="rgb(246,211,151)"/><path d=" M 386.97 71.457 L 424.993 109.5 C 428.731 113.235 430.831 118.302 430.831 123.586 C 430.831 128.869 428.731 133.936 424.993 137.671 L 402.585 160.045 L 336.398 93.865 L 358.779 71.457 C 366.575 63.7 379.174 63.7 386.97 71.457 Z " fill="rgb(237,120,153)"/><path d=" M 336.139 93.685 L 402.532 160.078 L 382.329 180.255 L 315.962 113.889 L 336.139 93.685 Z " fill="rgb(194,205,231)"/><path d=" M 213.286 267.316 L 218.551 209.953 L 255.067 215.132 L 260.232 230.8 L 275.502 238.635 L 286.324 277.74 L 223.716 277.74 L 213.286 267.316 Z " fill="rgb(250,239,222)"/><path d=" M 145.777 211.739 C 145.946 199.768 139.657 188.634 129.318 182.599 C 118.978 176.564 106.19 176.564 95.85 182.599 C 85.511 188.634 79.221 199.768 79.391 211.739 C 79.391 230.073 94.253 244.935 112.587 244.935 C 130.921 244.935 145.784 230.073 145.784 211.739 L 145.777 211.739 Z  M 112.581 231.657 C 105.462 231.654 98.886 227.855 95.329 221.689 C 91.772 215.523 91.774 207.928 95.335 201.764 C 98.897 195.601 105.476 191.805 112.594 191.808 C 123.598 191.811 132.515 200.735 132.512 211.739 C 132.508 222.743 123.585 231.66 112.581 231.657 L 112.581 231.657 Z  M 105.477 264.853 L 105.477 278.132 C 105.477 281.783 108.464 284.771 112.116 284.771 C 115.767 284.771 118.755 281.783 118.755 278.132 L 118.755 264.853 C 118.755 261.202 115.767 258.214 112.116 258.214 C 108.464 258.214 105.477 261.202 105.477 264.853 Z  M 112.116 165.264 C 115.767 165.264 118.755 162.276 118.755 158.624 L 118.755 145.346 C 118.755 141.694 115.767 138.707 112.116 138.707 C 108.464 138.707 105.477 141.694 105.477 145.346 L 105.477 158.624 C 105.477 162.276 108.464 165.264 112.116 165.264 Z  M 158.591 211.739 C 158.591 215.39 161.579 218.378 165.23 218.378 L 178.509 218.378 C 182.16 218.378 185.148 215.39 185.148 211.739 C 185.148 208.087 182.16 205.1 178.509 205.1 L 165.23 205.1 C 161.579 205.1 158.591 208.087 158.591 211.739 Z  M 45.723 218.378 L 59.001 218.378 C 62.653 218.378 65.641 215.39 65.641 211.739 C 65.641 208.087 62.653 205.1 59.001 205.1 L 45.723 205.1 C 42.071 205.1 39.084 208.087 39.084 211.739 C 39.084 215.39 42.071 218.378 45.723 218.378 Z  M 139.53 272.555 C 140.725 274.606 142.929 275.875 145.312 275.875 C 146.489 275.92 147.65 275.595 148.632 274.945 C 150.172 274.068 151.294 272.608 151.746 270.895 C 152.211 269.189 151.977 267.368 151.095 265.836 L 144.456 254.376 C 143.353 252.164 141.113 250.748 138.641 250.698 C 136.17 250.649 133.875 251.975 132.685 254.141 C 131.494 256.308 131.604 258.956 132.97 261.016 L 139.53 272.555 Z  M 79.776 169.048 C 80.971 171.1 83.175 172.368 85.559 172.368 C 86.735 172.414 87.897 172.088 88.878 171.438 C 90.418 170.561 91.54 169.102 91.992 167.388 C 92.456 165.685 92.222 163.866 91.341 162.336 L 84.702 150.85 C 82.782 147.864 78.861 146.904 75.779 148.665 C 72.697 150.44 71.566 154.332 73.216 157.482 L 79.776 169.048 Z  M 152.343 188.501 C 153.558 190.599 155.763 191.954 158.199 192.027 C 159.345 192.003 160.456 191.633 161.386 190.964 L 172.852 184.325 C 175.779 182.384 176.691 178.501 174.933 175.46 C 173.176 172.42 169.356 171.272 166.213 172.839 L 154.753 179.478 C 151.613 181.317 150.538 185.341 152.343 188.501 Z  M 62.786 232.513 L 51.3 239.153 C 49.76 240.03 48.638 241.489 48.186 243.203 C 47.721 244.906 47.955 246.725 48.837 248.255 C 50.052 250.353 52.256 251.707 54.699 251.78 C 55.837 251.761 56.941 251.39 57.859 250.718 L 69.345 244.079 C 72.36 242.16 73.316 238.216 71.556 235.156 C 69.774 232.067 65.871 230.936 62.713 232.593 L 62.786 232.513 Z  M 154.807 244.079 L 166.293 250.718 C 167.222 251.388 168.334 251.758 169.479 251.78 C 171.896 251.707 174.127 250.353 175.322 248.255 C 176.212 246.723 176.451 244.898 175.987 243.188 C 175.523 241.478 174.394 240.025 172.852 239.153 L 161.393 232.513 C 161.352 229.327 159.06 226.617 155.925 226.047 C 152.79 225.477 149.691 227.208 148.531 230.176 C 147.372 233.144 148.477 236.517 151.168 238.223 C 151.197 240.665 152.578 242.889 154.753 243.999 L 154.807 244.079 Z  M 51.3 184.325 L 62.786 190.964 C 63.716 191.634 64.827 192.004 65.973 192.027 C 68.389 191.954 70.62 190.599 71.815 188.501 C 72.704 186.969 72.943 185.146 72.48 183.437 C 72.018 181.727 70.892 180.274 69.352 179.399 L 57.866 172.76 C 55.804 171.461 53.197 171.393 51.07 172.584 C 48.944 173.774 47.639 176.032 47.668 178.469 C 47.695 180.899 49.062 183.13 51.22 184.246 L 51.3 184.325 Z  M 135.353 171.511 C 136.337 172.156 137.498 172.474 138.673 172.421 C 141.06 172.444 143.272 171.174 144.456 169.101 L 151.095 157.642 C 152.39 155.564 152.47 152.968 151.274 150.843 C 150.092 148.71 147.832 147.399 145.393 147.431 C 142.954 147.463 140.729 148.832 139.603 150.996 L 132.963 162.462 C 131.152 165.625 132.217 169.655 135.353 171.511 Z  M 88.878 251.966 C 85.683 250.147 81.618 251.247 79.776 254.43 L 73.137 265.916 C 72.253 267.448 72.019 269.269 72.486 270.975 C 72.938 272.688 74.06 274.147 75.6 275.025 C 76.587 275.663 77.744 275.987 78.919 275.954 C 81.31 275.954 83.507 274.679 84.702 272.635 L 91.341 261.149 C 92.242 259.604 92.495 257.766 92.045 256.036 C 91.572 254.313 90.432 252.849 88.878 251.966 Z  M 72.28 351.164 L 45.723 351.164 C 42.071 351.164 39.084 354.152 39.084 357.803 C 39.084 361.455 42.071 364.443 45.723 364.443 L 72.28 364.443 C 75.932 364.443 78.919 361.455 78.919 357.803 C 78.919 354.152 75.932 351.164 72.28 351.164 Z " fill="rgb(141,108,159)"/><path d=" M 427.748 96.945 L 399.531 68.728 C 393.307 62.5 384.863 59 376.058 59 C 367.253 59 358.809 62.5 352.585 68.728 L 309.894 111.419 L 32.444 111.419 C 21.444 111.419 12.526 120.337 12.526 131.337 L 12.526 371.082 C 12.526 382.082 21.444 391 32.444 391 L 364.409 391 C 375.41 391 384.327 382.082 384.327 371.082 L 384.327 187.359 L 408.959 162.668 L 427.615 144.025 C 433.9 137.813 437.449 129.352 437.474 120.516 C 437.498 111.68 433.998 103.198 427.748 96.952 L 427.748 96.945 Z  M 338.582 101.673 L 394.884 157.947 L 383.862 168.968 L 327.561 112.667 L 328.099 112.149 L 338.582 101.673 Z  M 245.632 274.294 L 221.93 250.639 L 225.84 218.378 L 255.452 221.492 L 255.452 234.306 C 255.452 237.973 258.424 240.945 262.091 240.945 L 274.905 240.945 L 278.098 270.968 L 245.632 274.294 Z  M 290.315 262.596 L 287.327 233.649 C 286.988 230.239 284.114 227.647 280.688 227.66 L 268.737 227.66 L 268.737 218.378 L 304.656 182.718 C 306.911 180.084 306.76 176.158 304.307 173.705 C 301.855 171.253 297.928 171.101 295.294 173.357 L 259.973 208.678 L 234.81 206.036 L 314.82 125.428 L 318.193 122.029 L 374.501 178.542 L 371.055 181.995 L 290.315 262.596 Z  M 371.049 371.082 C 371.049 374.734 368.061 377.721 364.409 377.721 L 32.444 377.721 C 28.793 377.721 25.805 374.734 25.805 371.082 L 25.805 132.067 C 25.805 128.416 28.793 125.428 32.444 125.428 L 296.091 125.428 L 215.357 206.368 C 214.315 207.428 213.66 208.807 213.498 210.285 L 208.592 252.298 L 203.924 284.771 C 203.659 286.691 204.246 288.632 205.531 290.083 C 206.797 291.536 208.636 292.361 210.563 292.34 L 211.705 292.34 L 244.57 287.626 L 286.729 283.111 C 288.262 282.96 289.694 282.279 290.779 281.186 L 371.049 200.718 L 371.049 371.082 Z  M 418.327 134.457 L 404.245 148.579 L 347.944 92.231 L 361.946 78.223 C 369.829 70.704 382.227 70.704 390.11 78.223 L 418.247 106.367 C 425.996 114.112 426.031 126.662 418.327 134.451 L 418.327 134.457 Z " fill="rgb(141,108,159)"/><path d=" M 239.657 312.723 C 241.913 310.088 241.761 306.162 239.309 303.709 C 236.856 301.257 232.93 301.105 230.295 303.361 L 215.025 318.645 L 192.465 296.051 C 188.82 292.245 183.779 290.092 178.509 290.092 C 173.239 290.092 168.198 292.245 164.553 296.051 L 109.473 351.164 L 98.837 351.164 C 95.186 351.164 92.198 354.152 92.198 357.803 C 92.198 361.455 95.186 364.443 98.837 364.443 L 351.131 364.443 C 354.782 364.443 357.77 361.455 357.77 357.803 C 357.77 354.152 354.782 351.164 351.131 351.164 L 201.149 351.164 L 239.657 312.723 Z  M 173.861 305.366 C 176.436 302.818 180.582 302.818 183.156 305.366 L 205.664 327.847 L 182.426 351.164 L 128.037 351.164 L 173.861 305.366 Z  M 333.138 316.042 C 335.772 318.298 339.699 318.146 342.151 315.694 C 344.604 313.242 344.756 309.315 342.5 306.681 L 315.942 280.124 C 313.308 277.868 309.382 278.019 306.929 280.472 C 304.477 282.924 304.325 286.851 306.581 289.485 L 333.138 316.042 Z " fill="rgb(141,108,159)"/></g></g></svg>